<svg xmlns="http://www.w3.org/2000/svg" width="60" height="60" viewBox="0 0 60 60">
  <metadata><?xpacket begin="﻿" id="W5M0MpCehiHzreSzNTczkc9d"?>
<x:xmpmeta xmlns:x="adobe:ns:meta/" x:xmptk="Adobe XMP Core 5.6-c138 79.159824, 2016/09/14-01:09:01        ">
   <rdf:RDF xmlns:rdf="http://www.w3.org/1999/02/22-rdf-syntax-ns#">
      <rdf:Description rdf:about=""/>
   </rdf:RDF>
</x:xmpmeta>
                                                                                                    
                                                                                                    
                                                                                                    
                                                                                                    
                                                                                                    
                                                                                                    
                                                                                                    
                                                                                                    
                                                                                                    
                                                                                                    
                                                                                                    
                                                                                                    
                                                                                                    
                                                                                                    
                                                                                                    
                                                                                                    
                                                                                                    
                                                                                                    
                                                                                                    
                                                                                                    
                           
<?xpacket end="w"?></metadata>
<defs>
    <style>
      .cls-1 {
        fill: #fff;
      }

      .cls-1, .cls-2 {
        fill-rule: evenodd;
      }

      .cls-2 {
        fill: #add136;
      }
    </style>
  </defs>
  <path id="Shape_663_copy_3" data-name="Shape 663 copy 3" class="cls-1" d="M36,29.992a2.325,2.325,0,0,0-.72-1.682l-7.884-7.625a2.522,2.522,0,0,0-3.478,0,2.323,2.323,0,0,0,0,3.364l6.145,5.943-6.145,5.943a2.323,2.323,0,0,0,0,3.364,2.519,2.519,0,0,0,3.478,0l7.884-7.624A2.325,2.325,0,0,0,36,29.992Z"/>
  <path class="cls-2" d="M58.033,18.4a0.965,0.965,0,0,1-.967-0.964V4.452L46.286,15.232a25.609,25.609,0,0,1,2.3,2.905l0.018-.019c0.149,0.216.281,0.445,0.423,0.666l0.1,0.165a26.01,26.01,0,1,1-7.311-7.6l-1.38,1.381A24.178,24.178,0,0,0,2.934,32.893c0,0.347.037,0.686,0.052,1.032L15.011,21.9a0.967,0.967,0,0,1,1.367,0L26.631,32.151l29.22-29.22H42.567a0.966,0.966,0,1,1,0-1.933H58.033A0.966,0.966,0,0,1,59,1.965V17.432A0.965,0.965,0,0,1,58.033,18.4Z"/>
</svg>
